<svg width="1600" height="960" viewBox="0 0 1600 960" fill="none" xmlns="http://www.w3.org/2000/svg">
<g clip-path="url(#clip0_3_490)">
<rect width="1600" height="960" fill="#0F0F11"/>
<g filter="url(#filter0_f_3_490)">
<ellipse cx="799.621" cy="-21.8732" rx="142.749" ry="142.749" transform="rotate(-90 799.621 -21.8732)" fill="#3C459A" fill-opacity="0.5"/>
</g>
<mask id="mask0_3_490" style="mask-type:alpha" maskUnits="userSpaceOnUse" x="222" y="-367" width="1157" height="691">
<rect x="222" y="-367" width="1156.45" height="690.254" fill="url(#paint0_radial_3_490)"/>
</mask>
<g mask="url(#mask0_3_490)">
<rect x="370.772" y="-70.0585" width="95.1659" height="95.1659" stroke="white" stroke-width="1.20463"/>
<rect x="465.938" y="-70.0585" width="95.1659" height="95.1659" stroke="white" stroke-width="1.20463"/>
<rect x="561.104" y="-70.0585" width="95.1659" height="95.1659" stroke="white" stroke-width="1.20463"/>
<rect x="656.27" y="-70.0585" width="95.1659" height="95.1659" stroke="white" stroke-width="1.20463"/>
<rect x="751.435" y="-70.0585" width="95.1659" height="95.1659" stroke="white" stroke-width="1.20463"/>
<rect x="846.601" y="-70.0585" width="95.1659" height="95.1659" stroke="white" stroke-width="1.20463"/>
<rect x="941.767" y="-70.0585" width="95.1659" height="95.1659" stroke="white" stroke-width="1.20463"/>
<rect x="1036.93" y="-70.0585" width="95.1659" height="95.1659" stroke="white" stroke-width="1.20463"/>
<rect x="1132.1" y="-70.0585" width="95.1659" height="95.1659" stroke="white" stroke-width="1.20463"/>
<rect x="370.772" y="25.1074" width="95.1659" height="95.1659" stroke="white" stroke-width="1.20463"/>
<rect x="465.938" y="25.1075" width="95.1659" height="95.1659" stroke="white" stroke-width="1.20463"/>
<rect x="561.104" y="25.1075" width="95.1659" height="95.1659" stroke="white" stroke-width="1.20463"/>
<rect x="656.27" y="25.1075" width="95.1659" height="95.1659" fill="white" fill-opacity="0.25" stroke="white" stroke-width="1.20463"/>
<rect x="751.435" y="25.1075" width="95.1659" height="95.1659" stroke="white" stroke-width="1.20463"/>
<rect x="846.601" y="25.1075" width="95.1659" height="95.1659" stroke="white" stroke-width="1.20463"/>
<rect x="941.767" y="25.1075" width="95.1659" height="95.1659" stroke="white" stroke-width="1.20463"/>
<rect x="1036.93" y="25.1075" width="95.1659" height="95.1659" stroke="white" stroke-width="1.20463"/>
<rect x="1132.1" y="25.1075" width="95.1659" height="95.1659" stroke="white" stroke-width="1.20463"/>
<rect x="370.772" y="120.273" width="95.1659" height="95.1659" stroke="white" stroke-width="1.20463"/>
<rect x="465.938" y="120.273" width="95.1659" height="95.1659" stroke="white" stroke-width="1.20463"/>
<rect x="561.104" y="120.273" width="95.1659" height="95.1659" stroke="white" stroke-width="1.20463"/>
<rect x="656.27" y="120.273" width="95.1659" height="95.1659" stroke="white" stroke-width="1.20463"/>
<rect x="751.435" y="120.273" width="95.1659" height="95.1659" stroke="white" stroke-width="1.20463"/>
<rect x="846.601" y="120.273" width="95.1659" height="95.1659" stroke="white" stroke-width="1.20463"/>
<rect x="941.767" y="120.273" width="95.1659" height="95.1659" stroke="white" stroke-width="1.20463"/>
<rect x="1036.93" y="120.273" width="95.1659" height="95.1659" stroke="white" stroke-width="1.20463"/>
<rect x="1132.1" y="120.273" width="95.1659" height="95.1659" stroke="white" stroke-width="1.20463"/>
<rect x="370.772" y="215.439" width="95.1659" height="95.1659" stroke="white" stroke-width="1.20463"/>
<rect x="465.938" y="215.439" width="95.1659" height="95.1659" stroke="white" stroke-width="1.20463"/>
<rect x="561.104" y="215.439" width="95.1659" height="95.1659" stroke="white" stroke-width="1.20463"/>
<rect x="656.27" y="215.439" width="95.1659" height="95.1659" stroke="white" stroke-width="1.20463"/>
<rect x="751.435" y="215.439" width="95.1659" height="95.1659" stroke="white" stroke-width="1.20463"/>
<rect x="846.601" y="215.439" width="95.1659" height="95.1659" stroke="white" stroke-width="1.20463"/>
<rect x="941.767" y="215.439" width="95.1659" height="95.1659" stroke="white" stroke-width="1.20463"/>
<rect x="1036.93" y="215.439" width="95.1659" height="95.1659" stroke="white" stroke-width="1.20463"/>
<rect x="1132.1" y="215.439" width="95.1659" height="95.1659" stroke="white" stroke-width="1.20463"/>
</g>
<g filter="url(#filter1_f_3_490)">
<ellipse cx="799.621" cy="981.873" rx="142.749" ry="142.749" transform="rotate(-90 799.621 981.873)" fill="#3C459A" fill-opacity="0.5"/>
</g>
<mask id="mask1_3_490" style="mask-type:alpha" maskUnits="userSpaceOnUse" x="222" y="636" width="1157" height="691">
<rect x="222" y="636.746" width="1156.45" height="690.254" fill="url(#paint1_radial_3_490)"/>
</mask>
<g mask="url(#mask1_3_490)">
<rect x="370.772" y="648.19" width="95.1659" height="95.1659" stroke="white" stroke-width="1.20463"/>
<rect x="465.938" y="648.19" width="95.1659" height="95.1659" stroke="white" stroke-width="1.20463"/>
<rect x="561.104" y="648.19" width="95.1659" height="95.1659" stroke="white" stroke-width="1.20463"/>
<rect x="656.27" y="648.19" width="95.1659" height="95.1659" stroke="white" stroke-width="1.20463"/>
<rect x="751.435" y="648.19" width="95.1659" height="95.1659" stroke="white" stroke-width="1.20463"/>
<rect x="846.601" y="648.19" width="95.1659" height="95.1659" stroke="white" stroke-width="1.20463"/>
<rect x="941.767" y="648.19" width="95.1659" height="95.1659" fill="white" fill-opacity="0.25" stroke="white" stroke-width="1.20463"/>
<rect x="1036.93" y="648.19" width="95.1659" height="95.1659" stroke="white" stroke-width="1.20463"/>
<rect x="1132.1" y="648.19" width="95.1659" height="95.1659" stroke="white" stroke-width="1.20463"/>
<rect x="370.772" y="743.356" width="95.1659" height="95.1659" stroke="white" stroke-width="1.20463"/>
<rect x="465.938" y="743.356" width="95.1659" height="95.1659" stroke="white" stroke-width="1.20463"/>
<rect x="561.104" y="743.356" width="95.1659" height="95.1659" stroke="white" stroke-width="1.20463"/>
<rect x="656.27" y="743.356" width="95.1659" height="95.1659" stroke="white" stroke-width="1.20463"/>
<rect x="751.435" y="743.356" width="95.1659" height="95.1659" stroke="white" stroke-width="1.20463"/>
<rect x="846.601" y="743.356" width="95.1659" height="95.1659" stroke="white" stroke-width="1.20463"/>
<rect x="941.767" y="743.356" width="95.1659" height="95.1659" stroke="white" stroke-width="1.20463"/>
<rect x="1036.93" y="743.356" width="95.1659" height="95.1659" stroke="white" stroke-width="1.20463"/>
<rect x="1132.1" y="743.356" width="95.1659" height="95.1659" stroke="white" stroke-width="1.20463"/>
<rect x="370.772" y="838.522" width="95.1659" height="95.1659" stroke="white" stroke-width="1.20463"/>
<rect x="465.938" y="838.522" width="95.1659" height="95.1659" stroke="white" stroke-width="1.20463"/>
<rect x="561.104" y="838.522" width="95.1659" height="95.1659" stroke="white" stroke-width="1.20463"/>
<rect x="656.27" y="838.522" width="95.1659" height="95.1659" stroke="white" stroke-width="1.20463"/>
<rect x="751.435" y="838.522" width="95.1659" height="95.1659" fill="white" fill-opacity="0.25" stroke="white" stroke-width="1.20463"/>
<rect x="846.601" y="838.522" width="95.1659" height="95.1659" stroke="white" stroke-width="1.20463"/>
<rect x="941.767" y="838.522" width="95.1659" height="95.1659" fill="white" fill-opacity="0.25" stroke="white" stroke-width="1.20463"/>
<rect x="1036.93" y="838.522" width="95.1659" height="95.1659" stroke="white" stroke-width="1.20463"/>
<rect x="1132.1" y="838.522" width="95.1659" height="95.1659" stroke="white" stroke-width="1.20463"/>
<rect x="370.772" y="933.688" width="95.1659" height="95.1659" stroke="white" stroke-width="1.20463"/>
<rect x="465.938" y="933.688" width="95.1659" height="95.1659" stroke="white" stroke-width="1.20463"/>
<rect x="561.104" y="933.688" width="95.1659" height="95.1659" stroke="white" stroke-width="1.20463"/>
<rect x="656.27" y="933.688" width="95.1659" height="95.1659" stroke="white" stroke-width="1.20463"/>
<rect x="751.435" y="933.688" width="95.1659" height="95.1659" stroke="white" stroke-width="1.20463"/>
<rect x="846.601" y="933.688" width="95.1659" height="95.1659" stroke="white" stroke-width="1.20463"/>
<rect x="941.767" y="933.688" width="95.1659" height="95.1659" stroke="white" stroke-width="1.20463"/>
<rect x="1036.93" y="933.688" width="95.1659" height="95.1659" stroke="white" stroke-width="1.20463"/>
<rect x="1132.1" y="933.688" width="95.1659" height="95.1659" stroke="white" stroke-width="1.20463"/>
</g>
</g>
<defs>
<filter id="filter0_f_3_490" x="415.946" y="-405.548" width="767.35" height="767.35" filterUnits="userSpaceOnUse" color-interpolation-filters="sRGB">
<feFlood flood-opacity="0" result="BackgroundImageFix"/>
<feBlend mode="normal" in="SourceGraphic" in2="BackgroundImageFix" result="shape"/>
<feGaussianBlur stdDeviation="120.463" result="effect1_foregroundBlur_3_490"/>
</filter>
<filter id="filter1_f_3_490" x="415.946" y="598.198" width="767.35" height="767.35" filterUnits="userSpaceOnUse" color-interpolation-filters="sRGB">
<feFlood flood-opacity="0" result="BackgroundImageFix"/>
<feBlend mode="normal" in="SourceGraphic" in2="BackgroundImageFix" result="shape"/>
<feGaussianBlur stdDeviation="120.463" result="effect1_foregroundBlur_3_490"/>
</filter>
<radialGradient id="paint0_radial_3_490" cx="0" cy="0" r="1" gradientUnits="userSpaceOnUse" gradientTransform="translate(800.223 -21.8731) rotate(90) scale(425.464 712.819)">
<stop stop-color="#D9D9D9" stop-opacity="0.2"/>
<stop offset="0.802083" stop-color="#D9D9D9" stop-opacity="0"/>
</radialGradient>
<radialGradient id="paint1_radial_3_490" cx="0" cy="0" r="1" gradientUnits="userSpaceOnUse" gradientTransform="translate(800.223 981.873) rotate(90) scale(425.464 712.819)">
<stop stop-color="#D9D9D9" stop-opacity="0.2"/>
<stop offset="0.802083" stop-color="#D9D9D9" stop-opacity="0"/>
</radialGradient>
<clipPath id="clip0_3_490">
<rect width="1600" height="960" fill="white"/>
</clipPath>
</defs>
</svg>
